<?xml version="1.0" encoding="UTF-8"?>
<svg id="Layer_2" data-name="Layer 2" xmlns="http://www.w3.org/2000/svg" viewBox="0 0 1583.73 264.2">
  <defs>
    <style>
      .cls-1 {
        fill: #fff;
      }
    </style>
  </defs>
  <g id="Layer_2-2" data-name="Layer 2">
    <g>
      <g>
        <path class="cls-1" d="M419.13,70.51v3.23c-2.15,.32-3.66,1.1-4.52,2.34-.86,1.24-1.21,2.85-1.05,4.84,.16,1.99,.62,4.11,1.37,6.37l24.68,71.63-4.36,5.81,20.65-60.34,2.26,4.36-25.33,76.31c-.86-.11-1.77-.16-2.74-.16h-5.81c-.97,0-1.88,.05-2.74,.16l-36.14-100.99c-1.4-3.98-3.04-6.67-4.92-8.07-1.88-1.4-3.63-2.15-5.24-2.26v-3.23c3.23,.11,7.04,.22,11.45,.32,4.41,.11,8.6,.16,12.58,.16,4.3,0,8.15-.05,11.54-.16,3.39-.11,6.16-.21,8.31-.32Zm115.19,0v3.23c-2.37,.86-4.84,2.72-7.42,5.57-2.58,2.85-4.84,7.4-6.78,13.63l-28.39,92.12c-.86-.11-1.77-.16-2.74-.16h-5.81c-.97,0-1.88,.05-2.74,.16l-33.88-102.6c-1.08-3.33-2.39-5.59-3.95-6.78-1.56-1.18-3.2-1.83-4.92-1.94v-3.23c3.01,.11,6.59,.22,10.73,.32,4.14,.11,8.25,.16,12.34,.16,4.73,0,9.17-.05,13.31-.16,4.14-.11,7.45-.21,9.92-.32v3.23c-3.23,.11-5.78,.48-7.66,1.13-1.88,.65-2.96,1.88-3.23,3.71-.27,1.83,.24,4.73,1.53,8.71l22.91,70.02-3.71,6.61,18.23-57.92c2.58-8.17,3.82-14.57,3.71-19.2-.11-4.62-1.35-7.93-3.71-9.92-2.37-1.99-5.75-3.04-10.16-3.15v-3.23c3.66,.11,7.1,.22,10.33,.32,3.23,.11,6.45,.16,9.68,.16,2.47,0,4.76-.05,6.86-.16,2.1-.11,3.95-.21,5.57-.32Z"/>
        <path class="cls-1" d="M584.97,99.06c3.44,0,6.24,.73,8.39,2.18,2.15,1.45,3.74,3.31,4.76,5.57,1.02,2.26,1.53,4.63,1.53,7.1,0,3.98-1.16,7.23-3.47,9.76-2.31,2.53-5.35,3.79-9.11,3.79s-6.7-.94-8.79-2.82c-2.1-1.88-3.15-4.38-3.15-7.5s.67-5.51,2.02-7.5c1.34-1.99,3.04-3.68,5.08-5.08-1.51-.43-3.01-.38-4.52,.16-2.04,.32-3.98,1.16-5.81,2.5-1.83,1.35-3.39,3.01-4.68,5-1.29,1.99-2.31,4.14-3.07,6.45-.75,2.31-1.13,4.54-1.13,6.7v42.75c0,5.16,1.26,8.66,3.79,10.49,2.53,1.83,6.32,2.74,11.37,2.74v3.39c-2.48-.11-6.08-.24-10.81-.4-4.73-.16-9.68-.24-14.84-.24-4.3,0-8.66,.08-13.07,.24-4.41,.16-7.74,.3-10,.4v-3.39c3.76,0,6.42-.81,7.99-2.42,1.56-1.61,2.34-4.68,2.34-9.2v-50.82c0-4.84-.73-8.41-2.18-10.73-1.45-2.31-4.17-3.47-8.15-3.47v-3.39c3.44,.32,6.78,.48,10,.48,4.52,0,8.74-.19,12.66-.56,3.92-.38,7.55-.94,10.89-1.69v15c1.29-2.9,3.01-5.54,5.16-7.91,2.15-2.36,4.62-4.22,7.42-5.57,2.8-1.34,5.91-2.02,9.36-2.02Z"/>
        <path class="cls-1" d="M638.37,99.55v70.18c0,4.52,.78,7.58,2.34,9.2,1.56,1.61,4.22,2.42,7.99,2.42v3.39c-1.94-.11-4.95-.24-9.03-.4-4.09-.16-8.23-.24-12.42-.24s-8.44,.08-12.74,.24c-4.3,.16-7.53,.3-9.68,.4v-3.39c3.76,0,6.42-.81,7.99-2.42,1.56-1.61,2.34-4.68,2.34-9.2v-50.82c0-4.84-.73-8.41-2.18-10.73-1.45-2.31-4.17-3.47-8.15-3.47v-3.39c3.44,.32,6.78,.48,10,.48,4.52,0,8.74-.19,12.66-.56,3.92-.38,7.55-.94,10.89-1.69Zm-12.58-39.85c4.52,0,8.09,1.1,10.73,3.31,2.63,2.21,3.95,5.24,3.95,9.12s-1.32,6.91-3.95,9.11c-2.64,2.21-6.21,3.31-10.73,3.31s-8.09-1.1-10.73-3.31c-2.64-2.2-3.95-5.24-3.95-9.11s1.32-6.91,3.95-9.12c2.63-2.2,6.21-3.31,10.73-3.31Z"/>
        <path class="cls-1" d="M686.93,215.06c-6.67,0-12.61-.56-17.83-1.69-5.22-1.13-9.3-2.85-12.26-5.16-2.96-2.31-4.44-5.14-4.44-8.47s1.5-6.32,4.52-8.95c3.01-2.64,7.47-4.71,13.39-6.21l1.45,2.58c-2.04,1.61-3.52,3.36-4.44,5.24-.92,1.88-1.37,3.84-1.37,5.89,0,4.52,2.07,7.99,6.21,10.41,4.14,2.42,9.76,3.63,16.86,3.63,4.84,0,9.17-.65,12.99-1.94,3.82-1.29,6.83-3.23,9.03-5.81,2.2-2.58,3.31-5.75,3.31-9.52,0-3.23-1.18-5.94-3.55-8.15-2.37-2.2-7.1-3.31-14.2-3.31h-10c-4.41,0-8.26-.48-11.54-1.45-3.28-.97-5.83-2.5-7.66-4.6-1.83-2.1-2.74-4.76-2.74-7.99,0-4.52,1.77-8.49,5.32-11.94,3.55-3.44,8.82-6.67,15.81-9.68l1.61,1.29c-2.04,1.29-3.95,2.66-5.73,4.11s-2.66,3.31-2.66,5.57c0,3.44,2.15,5.16,6.45,5.16h17.58c5.91,0,11.21,.7,15.89,2.1,4.68,1.4,8.39,3.69,11.13,6.86,2.74,3.17,4.11,7.29,4.11,12.34s-1.69,10.16-5.08,14.68c-3.39,4.52-8.58,8.15-15.57,10.89-6.99,2.74-15.87,4.11-26.62,4.11Zm1.61-64.69c-6.13,0-11.62-.91-16.46-2.74-4.84-1.83-8.66-4.62-11.45-8.39-2.8-3.76-4.19-8.6-4.19-14.52s1.4-10.78,4.19-14.6c2.79-3.82,6.61-6.61,11.45-8.39,4.84-1.78,10.33-2.66,16.46-2.66s11.62,.89,16.46,2.66c4.84,1.77,8.66,4.57,11.45,8.39,2.8,3.82,4.2,8.69,4.2,14.6s-1.4,10.76-4.2,14.52c-2.8,3.77-6.61,6.56-11.45,8.39-4.84,1.83-10.32,2.74-16.46,2.74Zm0-2.9c2.9,0,5.16-1.64,6.78-4.92,1.61-3.28,2.42-9.22,2.42-17.83s-.81-14.54-2.42-17.83c-1.61-3.28-3.87-4.92-6.78-4.92s-5.03,1.64-6.7,4.92c-1.67,3.28-2.5,9.22-2.5,17.83s.83,14.55,2.5,17.83c1.67,3.28,3.9,4.92,6.7,4.92Zm25.17-34.52l-3.23-1.13c1.61-4.19,4.22-7.69,7.82-10.49,3.6-2.8,7.5-4.2,11.7-4.2,3.44,0,6.05,.94,7.82,2.82,1.77,1.88,2.66,4.33,2.66,7.34,0,3.23-.86,5.62-2.58,7.18-1.72,1.56-3.66,2.34-5.81,2.34-1.83,0-3.52-.65-5.08-1.94-1.56-1.29-2.45-3.25-2.66-5.89-.22-2.63,.7-6.05,2.74-10.24l1.13,.97c-4.09,1.51-7.15,3.25-9.2,5.24-2.04,1.99-3.82,4.65-5.32,7.99Z"/>
        <path class="cls-1" d="M777.59,58.57v55.5c2.69-5.59,6.32-9.49,10.89-11.7,4.57-2.2,9.71-3.31,15.41-3.31,4.62,0,8.33,.56,11.13,1.69,2.8,1.13,5,2.66,6.61,4.6,1.83,2.04,3.15,4.68,3.95,7.91s1.21,7.58,1.21,13.07v43.4c0,4.52,.78,7.58,2.34,9.2,1.56,1.61,4.22,2.42,7.99,2.42v3.39c-2.04-.11-5.14-.24-9.28-.4-4.14-.16-8.15-.24-12.02-.24-4.19,0-8.26,.08-12.18,.24-3.93,.16-6.86,.3-8.79,.4v-3.39c3.23,0,5.49-.81,6.78-2.42,1.29-1.61,1.94-4.68,1.94-9.2v-50.17c0-2.69-.27-5.03-.81-7.02-.54-1.99-1.53-3.55-2.98-4.68s-3.52-1.69-6.21-1.69c-2.9,0-5.57,.78-7.99,2.34-2.42,1.56-4.36,3.74-5.81,6.53-1.45,2.8-2.18,6.02-2.18,9.68v45.01c0,4.52,.65,7.58,1.94,9.2,1.29,1.61,3.55,2.42,6.78,2.42v3.39c-1.94-.11-4.79-.24-8.55-.4-3.77-.16-7.58-.24-11.45-.24-4.19,0-8.42,.08-12.66,.24-4.25,.16-7.45,.3-9.6,.4v-3.39c3.76,0,6.42-.81,7.99-2.42,1.56-1.61,2.34-4.68,2.34-9.2V77.93c0-4.84-.73-8.41-2.18-10.73-1.45-2.31-4.17-3.47-8.15-3.47v-3.39c3.44,.32,6.78,.48,10,.48,4.41,0,8.6-.19,12.58-.56,3.98-.38,7.63-.94,10.97-1.69Z"/>
        <path class="cls-1" d="M875.68,74.87v26.46h19.04v3.23h-19.04v65.18c0,3.23,.59,5.51,1.77,6.86,1.18,1.35,2.96,2.02,5.32,2.02,1.94,0,3.87-.73,5.81-2.18,1.94-1.45,3.66-3.95,5.16-7.5l2.74,1.45c-1.72,4.84-4.33,8.82-7.83,11.94-3.5,3.12-8.25,4.68-14.28,4.68-3.55,0-6.67-.46-9.36-1.37-2.69-.91-4.95-2.28-6.78-4.11-2.37-2.36-3.93-5.3-4.68-8.79-.75-3.49-1.13-8.04-1.13-13.63v-54.53h-13.55v-3.23h13.55v-21.3c4.52,0,8.68-.4,12.5-1.21,3.82-.81,7.39-2.12,10.73-3.95Z"/>
        <path class="cls-1" d="M937.79,70.51c2.79,.11,6.45,.22,10.97,.32,4.52,.11,9.03,.16,13.55,.16,5.16,0,10.16-.05,15-.16,4.84-.11,8.28-.16,10.33-.16,13.33,0,23.31,2.37,29.93,7.1,6.61,4.73,9.92,10.81,9.92,18.23,0,3.77-1.13,7.58-3.39,11.45s-5.75,7.32-10.49,10.33c-4.73,3.01-10.86,5.22-18.39,6.61v.32c10.11,.75,18.12,2.58,24.04,5.49,5.91,2.9,10.16,6.4,12.75,10.49,2.58,4.09,3.87,8.34,3.87,12.75,0,6.78-1.77,12.48-5.32,17.1-3.55,4.62-8.66,8.15-15.33,10.57-6.67,2.42-14.63,3.63-23.88,3.63-2.58,0-6.29-.08-11.13-.24s-10.7-.24-17.58-.24c-4.73,0-9.36,.03-13.87,.08-4.52,.06-8.17,.19-10.97,.4v-3.23c3.44-.21,6.02-.65,7.74-1.29,1.72-.64,2.88-1.94,3.47-3.87,.59-1.94,.89-4.84,.89-8.71V87.61c0-3.98-.3-6.91-.89-8.79-.59-1.88-1.77-3.17-3.55-3.87-1.78-.7-4.33-1.1-7.66-1.21v-3.23Zm47.75,3.23c-4.19,0-6.91,.92-8.15,2.74-1.24,1.83-1.86,5.54-1.86,11.13v80.02c0,3.77,.29,6.61,.89,8.55,.59,1.94,1.67,3.23,3.23,3.87,1.56,.65,3.9,.97,7.02,.97,7.74,0,13.42-2.44,17.02-7.34,3.6-4.89,5.4-11.86,5.4-20.89,0-8.28-2.07-14.68-6.21-19.2-4.14-4.52-11-6.78-20.57-6.78h-13.71v-2.74h13.87c5.05,0,8.93-1.21,11.62-3.63,2.69-2.42,4.57-5.65,5.65-9.68,1.07-4.03,1.61-8.36,1.61-12.99,0-7.96-1.24-13.95-3.71-17.99-2.47-4.03-6.51-6.05-12.1-6.05Z"/>
        <path class="cls-1" d="M1099.76,99.06c3.44,0,6.24,.73,8.39,2.18,2.15,1.45,3.74,3.31,4.76,5.57,1.02,2.26,1.53,4.63,1.53,7.1,0,3.98-1.16,7.23-3.47,9.76-2.31,2.53-5.35,3.79-9.11,3.79s-6.7-.94-8.79-2.82c-2.1-1.88-3.15-4.38-3.15-7.5s.67-5.51,2.02-7.5c1.34-1.99,3.04-3.68,5.08-5.08-1.51-.43-3.01-.38-4.52,.16-2.04,.32-3.98,1.16-5.81,2.5-1.83,1.35-3.39,3.01-4.68,5-1.29,1.99-2.31,4.14-3.07,6.45-.75,2.31-1.13,4.54-1.13,6.7v42.75c0,5.16,1.26,8.66,3.79,10.49,2.53,1.83,6.32,2.74,11.37,2.74v3.39c-2.48-.11-6.08-.24-10.81-.4-4.73-.16-9.68-.24-14.84-.24-4.3,0-8.66,.08-13.07,.24-4.41,.16-7.74,.3-10,.4v-3.39c3.76,0,6.42-.81,7.99-2.42,1.56-1.61,2.34-4.68,2.34-9.2v-50.82c0-4.84-.73-8.41-2.18-10.73-1.45-2.31-4.17-3.47-8.15-3.47v-3.39c3.44,.32,6.78,.48,10,.48,4.52,0,8.74-.19,12.66-.56,3.92-.38,7.55-.94,10.89-1.69v15c1.29-2.9,3.01-5.54,5.16-7.91,2.15-2.36,4.62-4.22,7.42-5.57,2.8-1.34,5.91-2.02,9.36-2.02Z"/>
        <path class="cls-1" d="M1158.96,99.06c7.85,0,14.73,1.45,20.65,4.36,5.91,2.9,10.54,7.58,13.87,14.04,3.33,6.45,5,15,5,25.65s-1.67,19.17-5,25.57c-3.33,6.4-7.96,11.05-13.87,13.95-5.92,2.9-12.8,4.36-20.65,4.36s-14.44-1.45-20.41-4.36c-5.97-2.9-10.65-7.55-14.04-13.95-3.39-6.4-5.08-14.92-5.08-25.57s1.69-19.2,5.08-25.65,8.07-11.13,14.04-14.04c5.97-2.9,12.77-4.36,20.41-4.36Zm0,3.23c-4.3,0-7.91,3.2-10.81,9.6-2.9,6.4-4.36,16.81-4.36,31.22s1.45,24.79,4.36,31.14c2.9,6.35,6.51,9.52,10.81,9.52s8.04-3.17,10.89-9.52c2.85-6.34,4.28-16.72,4.28-31.14s-1.43-24.82-4.28-31.22c-2.85-6.4-6.48-9.6-10.89-9.6Z"/>
        <path class="cls-1" d="M1241.24,74.87v26.46h19.04v3.23h-19.04v65.18c0,3.23,.59,5.51,1.77,6.86,1.18,1.35,2.96,2.02,5.32,2.02,1.94,0,3.87-.73,5.81-2.18,1.94-1.45,3.66-3.95,5.16-7.5l2.74,1.45c-1.72,4.84-4.33,8.82-7.83,11.94-3.5,3.12-8.25,4.68-14.28,4.68-3.55,0-6.67-.46-9.36-1.37-2.69-.91-4.95-2.28-6.78-4.11-2.37-2.36-3.93-5.3-4.68-8.79-.75-3.49-1.13-8.04-1.13-13.63v-54.53h-13.55v-3.23h13.55v-21.3c4.52,0,8.68-.4,12.5-1.21,3.82-.81,7.39-2.12,10.73-3.95Z"/>
        <path class="cls-1" d="M1298.02,58.57v55.5c2.69-5.59,6.32-9.49,10.89-11.7,4.57-2.2,9.71-3.31,15.41-3.31,4.62,0,8.33,.56,11.13,1.69,2.8,1.13,5,2.66,6.61,4.6,1.83,2.04,3.15,4.68,3.95,7.91s1.21,7.58,1.21,13.07v43.4c0,4.52,.78,7.58,2.34,9.2,1.56,1.61,4.22,2.42,7.99,2.42v3.39c-2.04-.11-5.14-.24-9.28-.4-4.14-.16-8.15-.24-12.02-.24-4.19,0-8.26,.08-12.18,.24-3.93,.16-6.86,.3-8.79,.4v-3.39c3.23,0,5.49-.81,6.78-2.42,1.29-1.61,1.94-4.68,1.94-9.2v-50.17c0-2.69-.27-5.03-.81-7.02-.54-1.99-1.53-3.55-2.98-4.68s-3.52-1.69-6.21-1.69c-2.9,0-5.57,.78-7.99,2.34-2.42,1.56-4.36,3.74-5.81,6.53-1.45,2.8-2.18,6.02-2.18,9.68v45.01c0,4.52,.65,7.58,1.94,9.2,1.29,1.61,3.55,2.42,6.78,2.42v3.39c-1.94-.11-4.79-.24-8.55-.4-3.77-.16-7.58-.24-11.45-.24-4.19,0-8.42,.08-12.66,.24-4.25,.16-7.45,.3-9.6,.4v-3.39c3.76,0,6.42-.81,7.99-2.42,1.56-1.61,2.34-4.68,2.34-9.2V77.93c0-4.84-.73-8.41-2.18-10.73-1.45-2.31-4.17-3.47-8.15-3.47v-3.39c3.44,.32,6.78,.48,10,.48,4.41,0,8.6-.19,12.58-.56,3.98-.38,7.63-.94,10.97-1.69Z"/>
        <path class="cls-1" d="M1404.98,99.06c9.46,0,16.88,2.8,22.26,8.39,5.38,5.59,8.07,14.74,8.07,27.43h-53.08l-.32-3.07h33.07c.11-5.27-.22-10.14-.97-14.6-.75-4.46-1.94-8.04-3.55-10.73-1.61-2.69-3.77-4.03-6.45-4.03-3.77,0-6.96,2.37-9.6,7.1-2.64,4.73-4.22,12.58-4.76,23.55l.48,.97c-.11,1.29-.19,2.64-.24,4.03-.06,1.4-.08,2.85-.08,4.36,0,7.42,1.05,13.45,3.15,18.07,2.1,4.63,4.76,7.99,7.99,10.08,3.23,2.1,6.51,3.15,9.84,3.15,2.26,0,4.6-.35,7.02-1.05,2.42-.7,4.87-1.99,7.34-3.87,2.47-1.88,4.78-4.54,6.94-7.99l2.9,.97c-1.29,4.09-3.33,8.07-6.13,11.94-2.8,3.87-6.35,7.04-10.65,9.52-4.3,2.47-9.46,3.71-15.49,3.71-7.32,0-13.77-1.56-19.36-4.68-5.59-3.12-9.98-7.85-13.15-14.2-3.17-6.34-4.76-14.41-4.76-24.2s1.69-18.34,5.08-25.01c3.39-6.67,8.07-11.64,14.04-14.92,5.97-3.28,12.77-4.92,20.41-4.92Z"/>
        <path class="cls-1" d="M1499.2,99.06c3.44,0,6.24,.73,8.39,2.18,2.15,1.45,3.74,3.31,4.76,5.57,1.02,2.26,1.53,4.63,1.53,7.1,0,3.98-1.16,7.23-3.47,9.76-2.31,2.53-5.35,3.79-9.11,3.79s-6.7-.94-8.79-2.82c-2.1-1.88-3.15-4.38-3.15-7.5s.67-5.51,2.02-7.5c1.34-1.99,3.04-3.68,5.08-5.08-1.51-.43-3.01-.38-4.52,.16-2.04,.32-3.98,1.16-5.81,2.5-1.83,1.35-3.39,3.01-4.68,5-1.29,1.99-2.31,4.14-3.07,6.45-.75,2.31-1.13,4.54-1.13,6.7v42.75c0,5.16,1.26,8.66,3.79,10.49,2.53,1.83,6.32,2.74,11.37,2.74v3.39c-2.48-.11-6.08-.24-10.81-.4-4.73-.16-9.68-.24-14.84-.24-4.3,0-8.66,.08-13.07,.24-4.41,.16-7.74,.3-10,.4v-3.39c3.76,0,6.42-.81,7.99-2.42,1.56-1.61,2.34-4.68,2.34-9.2v-50.82c0-4.84-.73-8.41-2.18-10.73-1.45-2.31-4.17-3.47-8.15-3.47v-3.39c3.44,.32,6.78,.48,10,.48,4.52,0,8.74-.19,12.66-.56,3.92-.38,7.55-.94,10.89-1.69v15c1.29-2.9,3.01-5.54,5.16-7.91,2.15-2.36,4.62-4.22,7.42-5.57,2.8-1.34,5.91-2.02,9.36-2.02Z"/>
        <path class="cls-1" d="M1550.98,99.06c4.52,0,8.47,.56,11.86,1.69,3.39,1.13,5.83,2.23,7.34,3.31,3.65,2.48,5.91,.86,6.78-4.84h3.39c-.22,3.01-.38,6.7-.48,11.05-.11,4.36-.16,10.14-.16,17.34h-3.39c-.54-3.98-1.56-7.91-3.07-11.78-1.51-3.87-3.68-7.04-6.53-9.52-2.85-2.47-6.53-3.71-11.05-3.71-3.12,0-5.75,.89-7.91,2.66-2.15,1.77-3.23,4.33-3.23,7.66s.97,6.05,2.9,8.47c1.94,2.42,4.44,4.73,7.5,6.94,3.07,2.21,6.26,4.54,9.6,7.02,3.55,2.69,6.78,5.35,9.68,7.99,2.9,2.64,5.21,5.51,6.94,8.63,1.72,3.12,2.58,6.83,2.58,11.13,0,4.84-1.4,9.06-4.19,12.66-2.8,3.61-6.48,6.37-11.05,8.31-4.57,1.94-9.65,2.9-15.25,2.9-3.23,0-6.11-.32-8.63-.97-2.53-.65-4.71-1.45-6.53-2.42-1.4-.65-2.72-1.26-3.95-1.86-1.24-.59-2.39-1.1-3.47-1.53-1.08-.32-2.02,.06-2.82,1.13-.81,1.08-1.43,2.58-1.86,4.52h-3.39c.21-3.44,.38-7.63,.48-12.58,.11-4.95,.16-11.51,.16-19.68h3.39c.65,5.81,1.83,10.94,3.55,15.41,1.72,4.46,4.06,7.96,7.02,10.49,2.96,2.53,6.69,3.79,11.21,3.79,1.83,0,3.6-.38,5.32-1.13,1.72-.75,3.15-1.99,4.28-3.71,1.13-1.72,1.69-3.92,1.69-6.61,0-4.73-1.53-8.66-4.6-11.78-3.07-3.12-6.96-6.51-11.7-10.16-3.44-2.79-6.7-5.57-9.76-8.31-3.07-2.74-5.57-5.75-7.5-9.03-1.94-3.28-2.9-7.02-2.9-11.21,0-4.84,1.29-8.93,3.87-12.26,2.58-3.33,5.99-5.83,10.24-7.5,4.25-1.67,8.79-2.5,13.63-2.5Z"/>
      </g>
      <g>
        <path class="cls-1" d="M319.07,198.13c-3.69-6.37-8.95-11.53-15.78-15.47-6.84-3.94-14.74-6.37-23.7-7.3,10.79-2.78,19.01-7.26,24.67-13.44,5.66-6.18,8.49-13.83,8.49-22.95,0-5.87-1.22-11.22-3.65-16.05-2.43-4.83-5.89-8.96-10.37-12.4-4.48-3.44-9.9-6.08-16.24-7.94-6.34-1.85-13.43-2.78-21.25-2.78-4.41,0-8.66,.23-12.76,.7l-11.51,1.27c-2.81,.31-6.91,.64-12.31,.99-5.4,.35-10.07,.52-14.02,.52-4.71,0-9.5-.15-14.36-.46l-13.68-.93-.46-.03,20.01-55.13c2.98-7.98,6-14.68,9.06-20.11,3.05-5.43,6.44-9.86,10.15-13.28,3.71-3.42,7.82-6,12.34-7.75V2.16h-55.39v3.53c15.96,3.12,23.95,10.33,23.95,21.65,0,4.79-1.28,10.71-3.85,17.78l-28.32,78.29L127.61,2.16h-3.12l-40.08,121.82L51.82,30.88c-1.74-5.01-2.6-9.15-2.6-12.42,0-5.32,2.53-8.89,7.6-10.71,2.57-.99,6.84-1.67,12.81-2.05V2.16H2.16v3.53c4.23,1.07,7.76,2.66,10.57,4.79,2.81,2.13,5.38,5.26,7.7,9.4,2.32,4.14,4.88,10.01,7.65,17.61l44.97,123.99h2.71L115.74,40.56l41.96,120.91h2.81l20.36-56.11c7.32,1.24,12.8,4.02,16.44,8.33,2.05,2.32,3.46,5.16,4.22,8.52,.76,3.36,1.14,8.33,1.14,14.89v87.5c0,10.97-1.41,18.35-4.22,22.14-3.72,5.02-9.61,8.23-17.66,9.62v3.59l2.28-.12,11.74-.7c5.55-.31,10.56-.46,15.04-.46,5.7,0,12,.19,18.92,.58,4.25,.23,12.15,.81,23.7,1.74,7.9,.7,13.94,1.04,18.12,1.04,8.05,0,15.46-.97,22.22-2.9,6.76-1.93,12.54-4.81,17.32-8.63,4.79-3.82,8.39-8.3,10.83-13.44,2.43-5.14,3.65-10.95,3.65-17.44,0-7.96-1.84-15.12-5.53-21.5ZM192.99,6.49h26.24c-5.41,4.63-9.86,10.68-13.33,18.12-.56-4.48-1.75-8.03-3.59-10.66-1.84-2.62-4.95-5.11-9.32-7.46ZM74.41,154.29L31.72,36.23c-2.08-5.7-3.94-10.26-5.57-13.68-1.63-3.42-3.37-6.38-5.21-8.89-1.84-2.51-4.04-4.9-6.61-7.18H47.03c-2.78,2.2-4.72,4.22-5.83,6.04-1.11,1.82-1.67,3.95-1.67,6.38,0,3.04,1.01,7.56,3.02,13.56l37.06,105.64-5.21,16.18Zm85.16-.11L117.93,34.64l5.62-17.21,41.75,120.57-5.73,16.18Zm134.49-36.72c5.09,5.6,7.64,12.54,7.64,20.8s-2.53,15.22-7.58,21.09c-5.05,5.87-12.25,10.2-21.6,12.98,11.4-7.19,17.09-18.2,17.09-33.03,0-13.98-6.04-25.3-18.12-33.96,9.95,2.47,17.47,6.51,22.56,12.11Zm-54.36-9.91c3.57-1.85,7.82-2.78,12.76-2.78,6.23,0,11.85,1.51,16.87,4.52s8.93,7.19,11.74,12.52c2.81,5.33,4.22,11.36,4.22,18.08,0,5.56-1.18,10.88-3.53,15.94-2.36,5.06-5.51,9.06-9.46,11.99-5.77,4.48-14.13,6.72-25.07,6.72h-18.46v-42.42c0-7.57,.87-13.1,2.62-16.57,1.97-3.48,4.75-6.14,8.32-8Zm-13.56,146.03c-5.85-.62-10.6-.93-14.24-.93-4.03,0-9.04,.39-15.04,1.16l3.99-3.13c2.66-2.01,4.33-3.57,5.01-4.69,.68-1.12,1.03-2.84,1.03-5.16V120.88c0-2.32-.34-4.04-1.03-5.16-.68-1.12-2.36-2.68-5.01-4.69l-6.04-4.75c6.08,.85,11.62,1.27,16.64,1.27,4.41,0,9.53-.27,15.39-.81l4.1-.35-6.04,4.64c-1.98,1.47-3.34,2.61-4.1,3.42-.76,.81-1.27,1.68-1.54,2.61-.27,.93-.4,2.2-.4,3.82v3.82c0,.62-.02,1.04-.06,1.27-.04,.23-.06,.46-.06,.7v108.36c0,.16,.02,.35,.06,.58,.04,.23,.06,.7,.06,1.39v3.82c0,2.32,.36,4.06,1.08,5.22,.72,1.16,2.37,2.71,4.96,4.64l3.99,3.13-2.74-.23Zm32.48,1.74c-10.87,0-18.56-2.07-23.08-6.2-4.52-4.13-6.78-11.22-6.78-21.27v-48.79h19.49c10.41,0,18.23,.89,23.48,2.67,3.87,1.16,7.33,2.88,10.37,5.16,3.04,2.28,5.64,5,7.81,8.17,2.17,3.17,3.8,6.66,4.9,10.49,1.1,3.82,1.65,7.98,1.65,12.46,0,10.59-3.19,19.43-9.57,26.54-6.46,7.19-15.88,10.78-28.26,10.78Zm50.43-18.66c-2.93,5.02-7.09,9.18-12.48,12.46-5.4,3.28-11.66,5.5-18.8,6.66,15.35-7.03,23.02-19.59,23.02-37.67,0-15.84-6.61-28.12-19.83-36.86,10.26,3.48,18.23,8.62,23.93,15.41,5.7,6.8,8.55,14.57,8.55,23.3,0,6.1-1.46,11.67-4.39,16.69Z"/>
        <path class="cls-1" d="M270.58,264.2c-4.22,0-10.38-.35-18.31-1.05-11.45-.92-19.41-1.5-23.63-1.73-6.86-.38-13.18-.58-18.8-.58-4.4,0-9.42,.15-14.92,.46l-16.29,.93v-7.68l1.79-.31c7.45-1.29,12.93-4.24,16.3-8.78,1.73-2.33,3.79-7.84,3.79-20.85v-87.5c0-6.37-.37-11.22-1.09-14.42-.68-2.99-1.93-5.53-3.73-7.56-3.02-3.58-7.52-6.02-13.42-7.29l-20.25,55.8h-5.86L115.79,47.28l-38.47,116.35h-5.78L26.05,38.22c-2.72-7.45-5.25-13.27-7.51-17.29-2.17-3.86-4.57-6.8-7.12-8.74-2.56-1.94-5.86-3.42-9.79-4.41l-1.63-.41V0H71.78V7.71l-2.02,.13c-5.72,.37-9.82,1.01-12.17,1.91-4.26,1.53-6.22,4.29-6.22,8.7,0,3.01,.84,6.95,2.48,11.72l30.48,87.1L122.92,0h6.21l40.98,116.98,26.26-72.59c2.47-6.8,3.72-12.53,3.72-17.04,0-10.23-7.26-16.62-22.2-19.54l-1.74-.34V0h59.7V7.05l-1.38,.53c-4.24,1.64-8.16,4.11-11.65,7.32-3.53,3.25-6.8,7.54-9.73,12.75-2.99,5.31-5.99,11.98-8.92,19.81l-19.02,52.42,11.27,.76c4.78,.3,9.56,.46,14.21,.46,3.88,0,8.55-.17,13.88-.52,5.35-.34,9.46-.67,12.21-.98l11.51-1.27c4.16-.47,8.53-.71,13-.71,7.99,0,15.35,.96,21.86,2.87,6.57,1.92,12.27,4.71,16.95,8.3,4.72,3.62,8.42,8.04,10.98,13.14,2.57,5.11,3.88,10.84,3.88,17.02,0,9.63-3.05,17.84-9.06,24.4-4.31,4.7-10.07,8.49-17.18,11.32,5.72,1.34,10.97,3.38,15.7,6.1,7.14,4.11,12.71,9.58,16.57,16.26h0c3.86,6.68,5.82,14.27,5.82,22.58,0,6.78-1.3,12.96-3.85,18.36-2.56,5.41-6.41,10.19-11.43,14.21-4.99,3.99-11.07,7.02-18.08,9.02-6.93,1.98-14.6,2.98-22.81,2.98Zm-4.08-4.4c1.52,.06,2.88,.09,4.08,.09,7.81,0,15.09-.95,21.63-2.82,6.45-1.84,12.03-4.62,16.57-8.24,4.5-3.6,7.94-7.87,10.22-12.68,2.28-4.82,3.44-10.38,3.44-16.52,0-7.54-1.76-14.41-5.24-20.42-3.48-6.01-8.52-10.95-14.99-14.68-6.54-3.77-14.23-6.13-22.85-7.03l-4.02-.42,6.31,2.14c10.59,3.59,18.96,9,24.89,16.07,6.01,7.17,9.05,15.47,9.05,24.68,0,6.46-1.57,12.44-4.68,17.77h0c-3.09,5.31-7.54,9.76-13.22,13.22-5.61,3.41-12.19,5.75-19.58,6.95l-11.6,1.88Zm-56.66-3.27c5.7,0,12.1,.2,19.04,.58,4.26,.23,12.25,.82,23.76,1.74,4.38,.39,8.2,.66,11.43,.84l9.17-4.2c-4.36,1.33-9.24,1.99-14.62,1.99-11.53,0-19.56-2.21-24.53-6.77-4.96-4.54-7.48-12.23-7.48-22.86v-50.95h21.64c4.57,0,8.62,.16,12.2,.5l5.5-3.47-.12-.08,.16,.05,.75-.47c-5.31,2.16-11.84,3.26-19.51,3.26h-20.62v-44.57c0-7.99,.93-13.73,2.85-17.54l.05-.1c2.17-3.83,5.27-6.81,9.2-8.85,3.86-2.01,8.49-3.02,13.76-3.02,6.6,0,12.65,1.62,17.98,4.83,.6,.36,1.18,.73,1.75,1.13-.63-.5-1.28-.98-1.95-1.46l-7.18-5.14c-.6-.01-1.21-.02-1.82-.02-4.31,0-8.52,.23-12.52,.68l-10.92,1.21-11.6,8.9c-2.35,1.75-3.38,2.69-3.84,3.18-.53,.57-.87,1.13-1.04,1.73-.14,.5-.32,1.47-.32,3.23v3.82c0,.76-.03,1.25-.08,1.62-.02,.12-.03,.23-.03,.35v108.36s0,.07,.03,.22c.04,.26,.09,.68,.09,1.75v3.82c0,2.37,.41,3.52,.76,4.07,.33,.52,1.33,1.74,4.42,4.05l9.71,7.61-9.97-.85c-5.75-.61-10.47-.92-14.02-.92-3.91,0-8.88,.38-14.77,1.14l-7.77,1,2.38-1.87c-1.92,.99-4.04,1.81-6.34,2.45l9.28-.55c5.59-.31,10.69-.47,15.17-.47Zm21.07-75.31v46.63c0,9.37,2.05,15.99,6.08,19.68,4.09,3.74,11.36,5.63,21.62,5.63,11.69,0,20.66-3.39,26.66-10.06,5.98-6.67,9.02-15.11,9.02-25.1,0-4.26-.53-8.25-1.57-11.86-1.03-3.58-2.58-6.9-4.61-9.87-2.02-2.96-4.48-5.53-7.32-7.66-2.82-2.12-6.09-3.74-9.69-4.82l-.07-.02c-5-1.69-12.66-2.55-22.78-2.55h-17.33Zm-19.02,69.28c2.69,0,6,.17,9.88,.5-1.8-1.47-3-2.71-3.68-3.81-.95-1.52-1.41-3.6-1.41-6.35v-3.82c0-.81-.03-1.05-.03-1.06-.05-.32-.08-.63-.08-.91V126.68c0-.36,.03-.71,.09-1.05h0s.03-.22,.03-.92v-3.82c0-1.85,.16-3.29,.48-4.42,.36-1.25,1.04-2.43,2.04-3.49,.85-.91,2.29-2.11,4.39-3.68l.17-.13c-4.57,.36-8.71,.54-12.33,.54-2.92,0-6.04-.14-9.33-.43l.07,.05c2.91,2.2,4.68,3.88,5.52,5.26,.9,1.48,1.34,3.53,1.34,6.28v119.95c0,2.75-.44,4.8-1.34,6.28-.64,1.04-1.8,2.26-3.6,3.75,2.91-.24,5.52-.37,7.8-.37Zm81.48-61.01c6.36,7.85,9.57,17.43,9.57,28.63,0,13.38-4.08,23.96-12.18,31.62,1.64-.74,3.2-1.56,4.68-2.46,5.06-3.08,9.01-7.02,11.74-11.7,2.72-4.67,4.09-9.92,4.09-15.6,0-8.17-2.71-15.54-8.04-21.91-2.71-3.24-6.01-6.1-9.86-8.57Zm-88.65,39.92c-.38,8.91-1.88,15.03-4.54,18.62-.29,.39-.59,.77-.91,1.14l.24-.18c3.22-2.43,4.2-3.62,4.5-4.12,.27-.43,.71-1.53,.71-4.03v-11.42Zm93.57-17.24c.21,1.89,.32,3.84,.32,5.83,0,11.04-3.38,20.43-10.05,27.89,6.75-6.78,10.06-15.97,10.06-27.78,0-2.05-.11-4.03-.34-5.95Zm-25.91-32.5c1.9,.57,3.73,1.28,5.45,2.11l-7.98-5.27-2.43-.25,1.48-.38-.22-.15-6.28,1.87c3.95,.46,7.26,1.15,9.99,2.07Zm-2.27-4.36l.44,.15,8.5-2.19c10.33-2.66,18.27-6.97,23.62-12.81,5.26-5.74,7.92-12.97,7.92-21.49,0-5.5-1.15-10.58-3.42-15.08-2.27-4.51-5.56-8.44-9.76-11.66-4.25-3.26-9.48-5.81-15.53-7.58-4.35-1.27-9.12-2.1-14.24-2.47l4.37,1.09c10.33,2.57,18.28,6.86,23.64,12.75h0c5.44,5.99,8.2,13.48,8.2,22.25s-2.73,16.25-8.1,22.5c-5.3,6.16-12.91,10.75-22.61,13.64l-3.03,.9Zm-39.19-2.92h16.3c10.4,0,18.39-2.11,23.75-6.27,3.68-2.73,6.63-6.49,8.83-11.2,2.21-4.75,3.33-9.81,3.33-15.03,0-6.33-1.33-12.08-3.97-17.07-2.61-4.95-6.29-8.88-10.94-11.67-4.65-2.79-9.95-4.21-15.76-4.21-4.57,0-8.53,.85-11.77,2.54h0c-3.21,1.66-5.63,3.99-7.41,7.1-1.57,3.16-2.37,8.39-2.37,15.56v40.26Zm50.07-61.52c7.17,7.89,10.79,17.42,10.79,28.45,0,10.37-2.71,19.04-8.07,25.91,3.46-2.06,6.39-4.49,8.78-7.27,4.68-5.44,7.06-12.07,7.06-19.69s-2.31-14.11-7.08-19.35c-2.92-3.21-6.76-5.91-11.48-8.05Zm3.08,12.18c2.25,5.07,3.38,10.72,3.38,16.85s-1.26,11.52-3.73,16.85c-.95,2.04-2.03,3.92-3.23,5.65,4.68-6.07,6.98-13.71,6.98-23.07,0-5.97-1.12-11.38-3.4-16.27ZM120.2,34.61l39.38,113.06,3.43-9.68L123.61,24.19l-3.41,10.42ZM19.6,8.64c1.12,1.22,2.15,2.47,3.08,3.75,1.91,2.61,3.73,5.71,5.41,9.24,1.66,3.47,3.56,8.14,5.65,13.86l40.54,112.13,3.05-9.48L40.52,33.18c-2.12-6.31-3.14-10.97-3.14-14.28,0-2.82,.67-5.35,1.98-7.5,.55-.9,1.25-1.81,2.11-2.76H19.6ZM8.66,4.33H53.21l-4.84,3.85c-2.57,2.04-4.36,3.88-5.33,5.47-.91,1.49-1.35,3.21-1.35,5.26,0,2.8,.98,7.13,2.91,12.88l36.95,105.32,2.51-7.59L49.78,31.59c-1.83-5.3-2.72-9.59-2.72-13.13,0-6.21,3.12-10.62,9.03-12.74,1.46-.56,3.38-1.03,5.79-1.4H5.19c2.66,.85,5.04,1.94,7.12,3.26l-3.65-3.24Zm115.07,7.03l43.44,125.45,2.71-7.47L126.08,4.31h-.03l-2.32,7.04Zm75.19,100.91s.02,.03,.03,.04c2.25,2.54,3.83,5.73,4.67,9.43,.57,2.53,.93,5.82,1.1,9.95v-10.81c0-2.5-.44-3.6-.71-4.03-.3-.5-1.29-1.69-4.47-4.1l-.62-.48Zm-13.22-8.02c2.2,.63,4.21,1.42,6.04,2.37l-2.73-2.15-3.31-.22Zm18.63-74.74c-.24,3.39-1.01,7.27-2.31,11.58,2.41-5.98,4.86-11.19,7.31-15.54,3.15-5.61,6.71-10.25,10.57-13.81,3.39-3.13,7.16-5.62,11.22-7.42h-49.04c1.9,.47,3.67,1.01,5.33,1.62l-2.97-1.6h40.62l-4.43,3.8c-5.15,4.41-9.45,10.26-12.77,17.39l-3.17,6.8-.35-2.81Zm-4.12-20.87c1.59,1.3,2.87,2.66,3.86,4.07,1.1,1.57,2,3.45,2.69,5.6,2.1-3.59,4.48-6.82,7.12-9.67h-13.67Z"/>
      </g>
    </g>
  </g>
</svg>